<mxfile host="app.diagrams.net" modified="2024-06-02T01:42:06.779Z" agent="Mozilla/5.0 (Macintosh; Intel Mac OS X 10_15_7) AppleWebKit/537.36 (KHTML, like Gecko) Chrome/124.0.0.0 Safari/537.36" version="24.4.13" etag="wg64MmSkKanT6g-hXSfg" type="github">
  <diagram name="第 1 页" id="71ItYq_TYN4C5H3WIXgH">
    <mxGraphModel>
      <root>
        <mxCell id="0" />
        <mxCell id="1" parent="0" />
      </root>
    </mxGraphModel>
  </diagram>
</mxfile>
